<svg width="1702" height="436" viewBox="0 0 1702 436" fill="none" xmlns="http://www.w3.org/2000/svg">
<rect width="1702" height="436" fill="white"/>
<path d="M652.985 272.999H566.451L544.757 312H517.456L598.627 170.133L583.27 141.37H612.278L702.712 312H673.704L652.985 272.999ZM641.041 250.573L611.059 193.534L579.127 250.573H641.041ZM708.806 251.061C708.806 239.36 711.649 228.716 717.337 219.129C723.025 209.378 730.825 201.74 740.738 196.215C750.651 190.528 761.62 187.684 773.645 187.684C787.133 187.684 799.239 191.665 809.965 199.628C820.853 207.428 828.003 217.666 831.415 230.341H806.065C803.302 223.841 798.833 218.722 792.658 214.985C786.645 211.085 779.901 209.134 772.426 209.134C764.788 209.134 757.963 211.003 751.951 214.741C745.938 218.316 741.225 223.354 737.813 229.854C734.4 236.192 732.694 243.26 732.694 251.061C732.694 258.861 734.4 266.011 737.813 272.511C741.225 278.849 745.938 283.887 751.951 287.624C757.963 291.199 764.788 292.987 772.426 292.987C779.901 292.987 786.645 291.118 792.658 287.381C798.833 283.48 803.302 278.28 806.065 271.78H831.415C828.003 284.455 820.853 294.774 809.965 302.737C799.239 310.537 787.133 314.438 773.645 314.438C761.62 314.438 750.651 311.675 740.738 306.15C730.825 300.462 723.025 292.824 717.337 283.237C711.649 273.486 708.806 262.761 708.806 251.061ZM979.005 290.062V312H967.304C960.967 312 956.01 310.294 952.435 306.881C949.023 303.468 947.154 298.675 946.829 292.499C941.629 299.487 935.372 304.931 928.06 308.831C920.747 312.569 912.865 314.438 904.415 314.438C893.527 314.438 883.614 311.756 874.677 306.394C865.901 300.868 858.914 293.312 853.714 283.724C848.676 274.136 846.157 263.249 846.157 251.061C846.157 238.873 848.757 227.985 853.957 218.397C859.157 208.809 866.226 201.334 875.164 195.972C884.102 190.446 894.096 187.684 905.146 187.684C914.409 187.684 922.941 189.959 930.741 194.509C938.704 199.059 945.285 205.316 950.485 213.278L953.898 190.121H975.836L967.061 251.061V283.48C967.061 285.593 967.629 287.218 968.767 288.356C969.905 289.493 971.448 290.062 973.398 290.062H979.005ZM907.584 292.987C914.734 292.987 921.234 291.199 927.085 287.624C932.935 284.049 937.485 279.093 940.735 272.755C943.985 266.255 945.61 259.023 945.61 251.061C945.61 243.098 943.985 235.948 940.735 229.61C937.485 223.11 932.935 218.072 927.085 214.497C921.234 210.922 914.734 209.134 907.584 209.134C900.434 209.134 894.015 210.922 888.327 214.497C882.639 218.072 878.171 223.11 874.92 229.61C871.67 235.948 870.045 243.098 870.045 251.061C870.045 259.023 871.67 266.255 874.92 272.755C878.171 279.093 882.639 284.049 888.327 287.624C894.015 291.199 900.434 292.987 907.584 292.987ZM1116.81 140.151V312H1093.66V293.718C1088.62 300.218 1082.52 305.337 1075.37 309.075C1068.22 312.65 1060.59 314.438 1052.46 314.438C1041.74 314.438 1031.99 311.756 1023.21 306.394C1014.44 300.868 1007.53 293.312 1002.49 283.724C997.454 274.136 994.935 263.249 994.935 251.061C994.935 238.873 997.454 227.985 1002.49 218.397C1007.53 208.809 1014.44 201.334 1023.21 195.972C1031.99 190.446 1041.74 187.684 1052.46 187.684C1060.91 187.684 1068.79 189.634 1076.11 193.534C1083.42 197.434 1089.68 202.878 1094.88 209.866V140.151H1116.81ZM1056.36 292.987C1063.51 292.987 1070.01 291.199 1075.86 287.624C1081.71 284.049 1086.26 279.093 1089.51 272.755C1092.76 266.255 1094.39 259.023 1094.39 251.061C1094.39 243.098 1092.76 235.948 1089.51 229.61C1086.26 223.11 1081.71 218.072 1075.86 214.497C1070.01 210.922 1063.51 209.134 1056.36 209.134C1049.21 209.134 1042.79 210.922 1037.1 214.497C1031.42 218.072 1026.95 223.11 1023.7 229.61C1020.45 235.948 1018.82 243.098 1018.82 251.061C1018.82 259.023 1020.45 266.255 1023.7 272.755C1026.95 279.093 1031.42 284.049 1037.1 287.624C1042.79 291.199 1049.21 292.987 1056.36 292.987ZM1207.3 187.684C1219.82 187.684 1230.71 190.365 1239.97 195.728C1249.39 201.09 1256.62 208.728 1261.66 218.641C1266.7 228.391 1269.22 239.848 1269.22 253.011C1269.22 256.423 1269.14 258.942 1268.98 260.567H1169.03C1170.66 269.993 1175.05 277.793 1182.2 283.968C1189.51 289.981 1197.96 292.987 1207.55 292.987C1223.31 292.987 1234.52 287.218 1241.19 275.68H1265.08C1261.17 287.056 1253.94 296.4 1243.38 303.712C1232.82 310.862 1220.87 314.438 1207.55 314.438C1195.69 314.438 1184.96 311.756 1175.37 306.394C1165.78 300.868 1158.31 293.312 1152.95 283.724C1147.58 273.974 1144.9 263.086 1144.9 251.061C1144.9 239.035 1147.58 228.229 1152.95 218.641C1158.31 208.891 1165.7 201.334 1175.13 195.972C1184.72 190.446 1195.44 187.684 1207.3 187.684ZM1206.82 208.159C1197.23 208.159 1188.94 211.166 1181.95 217.178C1175.13 223.191 1170.9 230.91 1169.28 240.335H1244.11C1243.14 230.585 1239.16 222.785 1232.17 216.935C1225.34 211.085 1216.89 208.159 1206.82 208.159ZM1447.18 187.684C1456.93 187.684 1465.63 189.796 1473.26 194.022C1481.06 198.247 1487.16 204.666 1491.54 213.278C1496.09 221.729 1498.37 232.129 1498.37 244.479V312H1475.21V244.967C1475.21 234.241 1472.13 225.71 1465.95 219.372C1459.94 213.035 1452.3 209.866 1443.04 209.866C1432.96 209.866 1424.84 213.441 1418.66 220.591C1412.49 227.741 1409.4 236.517 1409.4 246.917V312H1386.24V244.967C1386.24 234.241 1383.15 225.71 1376.98 219.372C1370.97 213.035 1363.33 209.866 1354.07 209.866C1343.99 209.866 1335.87 213.441 1329.69 220.591C1323.51 227.741 1320.43 236.517 1320.43 246.917V312H1297.27V190.121H1319.21V209.378C1323.6 202.716 1329.2 197.434 1336.03 193.534C1343.02 189.634 1350.41 187.684 1358.21 187.684C1367.8 187.684 1376.41 189.796 1384.05 194.022C1391.85 198.084 1397.86 204.178 1402.09 212.303C1406.8 204.828 1413.14 198.897 1421.1 194.509C1429.22 189.959 1437.92 187.684 1447.18 187.684ZM1645.19 190.121L1585.96 325.65C1582.87 333.938 1578.57 340.682 1573.04 345.882C1567.52 351.245 1559.39 353.926 1548.67 353.926C1541.03 353.926 1535.1 353.764 1530.87 353.439V331.501C1535.42 331.826 1540.87 331.988 1547.2 331.988C1551.75 331.988 1555.33 330.769 1557.93 328.332C1560.69 325.894 1562.97 322.563 1564.75 318.338L1568.41 309.806L1509.18 190.121H1536.23L1579.87 283.724L1620.82 190.121H1645.19Z" fill="black"/>
<g clip-path="url(#clip0_77_91)">
<path d="M123.218 295.129C129.007 295.129 134.803 295.044 140.592 295.175C142.394 295.214 143.357 294.652 144.261 293.078C160.21 265.223 176.232 237.414 192.227 209.585C198.784 198.183 205.282 186.748 211.917 175.392C212.919 173.673 212.906 172.288 212.275 170.504C207.149 155.94 201.047 141.702 197.431 126.621C195.564 118.833 194.074 111.044 194.809 102.903C195.59 94.3038 199.61 87.4887 205.679 81.9086C215.234 73.1137 226.364 69.6245 239.009 74.0742C251.746 78.5566 259.239 87.8219 261.731 101.073C262.986 107.757 261.431 114.187 259.025 120.414C253.495 134.698 246.145 148.053 238.3 161.148C237.37 162.696 237.409 163.82 238.287 165.342C262.888 208.043 287.457 250.769 311.986 293.515C312.884 295.077 313.834 295.737 315.688 295.711C327.962 295.561 340.25 295.293 352.485 296.711C362.919 297.919 373.17 299.553 382.583 304.826C392.542 310.4 398.181 318.985 399.762 329.917C401.856 344.449 397.479 356.779 385.933 366.508C371.108 378.988 348.582 378.812 333.999 368.122C325.972 362.241 319.89 354.779 313.918 347.062C305.469 336.15 297.8 324.709 290.67 312.902C289.942 311.693 289.142 311.242 287.737 311.242C243.159 311.275 198.582 311.282 154.005 311.223C152.262 311.223 151.572 312 150.824 313.314C142.179 328.604 133.196 343.678 122.177 357.419C115.991 365.136 108.699 370.984 98.6557 373.133C77.6453 377.622 55.9779 362.574 53.3694 341.182C51.3399 324.5 57.6106 311.602 71.6804 302.63C77.0208 299.22 83.2394 298.168 89.3799 297.318C100.601 295.744 111.899 295.221 123.218 295.129Z" fill="#020203"/>
<path d="M161.272 294.978C181.183 260.334 200.99 225.873 220.934 191.183C240.774 225.899 260.438 260.308 280.251 294.978C240.494 294.978 201.075 294.978 161.272 294.978Z" fill="white"/>
<path d="M134.186 310.92C125.372 325.452 117.306 339.88 105.858 351.928C99.867 358.227 92.367 359.456 84.3401 356.979C76.2742 354.49 71.246 348.838 69.21 340.592C66.5105 329.66 72.9177 315.984 87.3323 313.606C102.71 311.071 118.184 310.914 134.186 310.92Z" fill="white"/>
<path d="M321.803 310.894C338.443 310.999 354.529 310.92 370.466 314.057C380.255 315.984 387.625 325.903 387.359 335.933C387.085 346.303 379.807 355.522 369.874 357.535C361.808 359.168 354.809 357.241 349.15 351.033C341.962 343.153 336.179 334.234 330.5 325.256C327.599 320.682 324.88 315.991 321.803 310.894Z" fill="white"/>
<path d="M227.985 147.744C221.337 135.852 214.696 124.221 210.546 111.401C208.158 104.024 210.22 97.6011 215.899 92.5764C221.662 87.4733 228.427 86.4801 235.44 89.5707C242.38 92.6352 246.01 98.3395 246.42 105.906C246.602 109.284 245.184 112.434 244 115.55C239.759 126.737 234.002 137.165 227.985 147.744Z" fill="white"/>
</g>
<defs>
<clipPath id="clip0_77_91">
<rect width="347.271" height="303.862" fill="white" transform="translate(53 72.1383)"/>
</clipPath>
</defs>
</svg>
