<svg width="1555" height="213" viewBox="0 0 1555 213" fill="none" xmlns="http://www.w3.org/2000/svg">
<rect width="1555" height="213" fill="white"/>
<path d="M369.555 54.2095C381.906 54.2095 392.603 56.7459 401.646 61.8186C410.799 66.8913 417.801 73.8388 422.653 82.6609C427.506 91.3728 429.932 101.187 429.932 112.105C429.932 123.022 427.506 132.892 422.653 141.714C417.801 150.426 410.799 157.318 401.646 162.391C392.603 167.464 381.906 170 369.555 170H329.856V54.2095H369.555ZM369.555 154.12C378.267 154.12 385.876 152.411 392.382 148.992C398.889 145.574 403.851 140.722 407.27 134.436C410.799 128.04 412.563 120.596 412.563 112.105C412.563 103.613 410.799 96.2249 407.27 89.9392C403.851 83.5431 398.889 78.6358 392.382 75.2172C385.876 71.7987 378.267 70.0894 369.555 70.0894H346.397V154.12H369.555ZM485.55 85.6384C494.041 85.6384 501.43 87.4579 507.715 91.0971C514.111 94.7362 519.019 99.9192 522.437 106.646C525.856 113.263 527.565 121.037 527.565 129.97C527.565 132.285 527.51 133.995 527.4 135.097H459.58C460.682 141.493 463.66 146.787 468.512 150.977C473.475 155.058 479.209 157.098 485.715 157.098C496.412 157.098 504.021 153.183 508.543 145.353H524.753C522.107 153.073 517.199 159.413 510.031 164.376C502.863 169.228 494.758 171.654 485.715 171.654C477.665 171.654 470.387 169.835 463.88 166.195C457.374 162.446 452.301 157.318 448.662 150.812C445.023 144.195 443.204 136.807 443.204 128.646C443.204 120.486 445.023 113.152 448.662 106.646C452.301 100.029 457.319 94.9016 463.715 91.2625C470.221 87.5131 477.5 85.6384 485.55 85.6384ZM485.219 99.5332C478.713 99.5332 473.089 101.573 468.347 105.654C463.715 109.734 460.848 114.972 459.745 121.368H510.528C509.866 114.751 507.164 109.458 502.422 105.488C497.791 101.518 492.056 99.5332 485.219 99.5332ZM562.315 53.3825V170H546.601V53.3825H562.315ZM609.439 102.18V145.849C609.439 149.378 610.266 152.08 611.92 153.955C613.685 155.829 616.662 156.767 620.853 156.767C624.823 156.767 628.186 156.436 630.943 155.774V170.165C627.966 171.158 624.327 171.654 620.026 171.654C602.492 171.654 593.725 163.053 593.725 145.849V102.18H577.183V87.2925H593.725V65.7886H609.439V87.2925H632.597V102.18H609.439ZM724.441 87.2925V170H708.727V157.594C705.308 162.005 701.173 165.479 696.321 168.015C691.469 170.441 686.286 171.654 680.772 171.654C673.494 171.654 666.877 169.835 660.922 166.195C654.967 162.446 650.28 157.318 646.862 150.812C643.443 144.306 641.734 136.917 641.734 128.646C641.734 120.376 643.443 112.987 646.862 106.481C650.28 99.9743 654.967 94.9016 660.922 91.2625C666.877 87.5131 673.494 85.6384 680.772 85.6384C686.506 85.6384 691.855 86.9617 696.817 89.6083C701.779 92.255 706.025 95.9492 709.554 100.691V87.2925H724.441ZM683.418 157.098C688.271 157.098 692.682 155.885 696.652 153.459C700.622 151.032 703.709 147.669 705.915 143.368C708.12 138.957 709.223 134.05 709.223 128.646C709.223 123.243 708.12 118.391 705.915 114.09C703.709 109.679 700.622 106.26 696.652 103.834C692.682 101.408 688.271 100.195 683.418 100.195C678.566 100.195 674.21 101.408 670.351 103.834C666.491 106.26 663.458 109.679 661.253 114.09C659.047 118.391 657.945 123.243 657.945 128.646C657.945 134.05 659.047 138.957 661.253 143.368C663.458 147.669 666.491 151.032 670.351 153.459C674.21 155.885 678.566 157.098 683.418 157.098Z" fill="black"/>
<path d="M401.646 61.8186L400.537 63.7949L400.547 63.8005L401.646 61.8186ZM422.653 82.6609L420.668 83.7529L420.674 83.7635L422.653 82.6609ZM422.653 141.714L424.633 142.817L424.639 142.806L422.653 141.714ZM401.646 162.391L400.547 160.409L400.537 160.415L401.646 162.391ZM329.856 170H327.59V172.266H329.856V170ZM329.856 54.2095V51.9436H327.59V54.2095H329.856ZM392.382 148.992L393.436 150.998L393.436 150.998L392.382 148.992ZM407.27 134.436L405.286 133.341L405.279 133.353L407.27 134.436ZM407.27 89.9392L405.271 91.0073L405.282 91.028L405.294 91.0484L407.27 89.9392ZM392.382 75.2172L391.329 77.2232L391.329 77.2232L392.382 75.2172ZM346.397 70.0894V67.8234H344.131V70.0894H346.397ZM346.397 154.12H344.131V156.386H346.397V154.12ZM369.555 56.4755C381.592 56.4755 391.892 58.9454 400.537 63.7949L402.754 59.8424C393.314 54.5464 382.22 51.9436 369.555 51.9436V56.4755ZM400.547 63.8005C409.342 68.6748 416.03 75.3203 420.668 83.7529L424.639 81.5689C419.572 72.3572 412.255 65.1079 402.744 59.8367L400.547 63.8005ZM420.674 83.7635C425.321 92.1069 427.666 101.536 427.666 112.105H432.198C432.198 100.839 429.69 90.6387 424.633 81.5583L420.674 83.7635ZM427.666 112.105C427.666 122.673 425.321 132.162 420.668 140.622L424.639 142.806C429.69 133.622 432.198 123.371 432.198 112.105H427.666ZM420.674 140.611C416.038 148.935 409.349 155.531 400.547 160.409L402.744 164.373C412.248 159.106 419.565 151.917 424.633 142.817L420.674 140.611ZM400.537 160.415C391.892 165.264 381.592 167.734 369.555 167.734V172.266C382.22 172.266 393.314 169.663 402.754 164.367L400.537 160.415ZM369.555 167.734H329.856V172.266H369.555V167.734ZM332.122 170V54.2095H327.59V170H332.122ZM329.856 56.4755H369.555V51.9436H329.856V56.4755ZM369.555 156.386C378.566 156.386 386.55 154.617 393.436 150.998L391.329 146.986C385.202 150.205 377.968 151.854 369.555 151.854V156.386ZM393.436 150.998C400.328 147.377 405.622 142.209 409.26 135.518L405.279 133.353C402.081 139.234 397.45 143.77 391.329 146.986L393.436 150.998ZM409.254 135.53C412.996 128.748 414.829 120.916 414.829 112.105H410.297C410.297 120.276 408.602 127.331 405.286 133.341L409.254 135.53ZM414.829 112.105C414.829 103.294 412.996 95.5102 409.246 88.8299L405.294 91.0484C408.601 96.9396 410.297 103.933 410.297 112.105H414.829ZM409.268 88.871C405.633 82.0692 400.339 76.8379 393.436 73.2113L391.329 77.2232C397.439 80.4337 402.07 85.017 405.271 91.0073L409.268 88.871ZM393.436 73.2113C386.55 69.5929 378.566 67.8234 369.555 67.8234V72.3553C377.968 72.3553 385.202 74.0044 391.329 77.2232L393.436 73.2113ZM369.555 67.8234H346.397V72.3553H369.555V67.8234ZM344.131 70.0894V154.12H348.663V70.0894H344.131ZM346.397 156.386H369.555V151.854H346.397V156.386ZM507.715 91.0971L506.58 93.0581L506.587 93.0623L506.595 93.0666L507.715 91.0971ZM522.437 106.646L520.417 107.673L520.421 107.679L520.424 107.686L522.437 106.646ZM527.4 135.097V137.363H529.45L529.655 135.323L527.4 135.097ZM459.58 135.097V132.831H456.89L457.347 135.482L459.58 135.097ZM468.512 150.977L467.031 152.692L467.052 152.71L467.073 152.728L468.512 150.977ZM508.543 145.353V143.087H507.234L506.58 144.22L508.543 145.353ZM524.753 145.353L526.897 146.088L527.926 143.087H524.753V145.353ZM510.031 164.376L511.301 166.252L511.311 166.246L511.321 166.239L510.031 164.376ZM463.88 166.195L462.749 168.159L462.762 168.166L462.774 168.173L463.88 166.195ZM448.662 150.812L446.677 151.904L446.681 151.911L446.685 151.918L448.662 150.812ZM448.662 106.646L450.64 107.752L450.644 107.745L450.648 107.738L448.662 106.646ZM463.715 91.2625L464.836 93.232L464.846 93.2258L463.715 91.2625ZM468.347 105.654L466.869 103.936L466.859 103.945L466.849 103.953L468.347 105.654ZM459.745 121.368L457.512 120.983L457.055 123.634H459.745V121.368ZM510.528 121.368V123.634H513.031L512.782 121.143L510.528 121.368ZM502.422 105.488L500.948 107.209L500.957 107.217L500.968 107.226L502.422 105.488ZM485.55 87.9043C493.711 87.9043 500.694 89.6502 506.58 93.0581L508.851 89.136C502.166 85.2656 494.372 83.3724 485.55 83.3724V87.9043ZM506.595 93.0666C512.595 96.4804 517.194 101.331 520.417 107.673L524.457 105.619C520.843 98.5077 515.628 92.992 508.836 89.1276L506.595 93.0666ZM520.424 107.686C523.647 113.923 525.299 121.327 525.299 129.97H529.831C529.831 120.747 528.065 112.602 524.451 105.606L520.424 107.686ZM525.299 129.97C525.299 132.273 525.244 133.888 525.145 134.872L529.655 135.323C529.777 134.102 529.831 132.298 529.831 129.97H525.299ZM527.4 132.831H459.58V137.363H527.4V132.831ZM457.347 135.482C458.537 142.389 461.776 148.154 467.031 152.692L469.993 149.262C465.543 145.419 462.828 140.598 461.813 134.712L457.347 135.482ZM467.073 152.728C472.447 157.146 478.691 159.364 485.715 159.364V154.832C479.727 154.832 474.503 152.969 469.951 149.227L467.073 152.728ZM485.715 159.364C497.046 159.364 505.498 155.157 510.505 146.486L506.58 144.22C502.545 151.209 495.778 154.832 485.715 154.832V159.364ZM508.543 147.619H524.753V143.087H508.543V147.619ZM522.61 144.618C520.131 151.848 515.541 157.806 508.741 162.513L511.321 166.239C518.858 161.021 524.082 154.297 526.897 146.088L522.61 144.618ZM508.761 162.499C501.985 167.086 494.327 169.388 485.715 169.388V173.92C495.189 173.92 503.741 171.37 511.301 166.252L508.761 162.499ZM485.715 169.388C478.021 169.388 471.128 167.653 464.987 164.218L462.774 168.173C469.645 172.016 477.31 173.92 485.715 173.92V169.388ZM465.012 164.232C458.857 160.685 454.078 155.852 450.64 149.706L446.685 151.918C450.525 158.784 455.891 164.207 462.749 168.159L465.012 164.232ZM450.648 149.72C447.207 143.465 445.47 136.457 445.47 128.646H440.938C440.938 137.157 442.839 144.926 446.677 151.904L450.648 149.72ZM445.47 128.646C445.47 120.835 447.207 113.889 450.64 107.752L446.685 105.54C442.839 112.416 440.938 120.136 440.938 128.646H445.47ZM450.648 107.738C454.091 101.478 458.813 96.6585 464.836 93.232L462.595 89.293C455.825 93.1447 450.512 98.5808 446.677 105.554L450.648 107.738ZM464.846 93.2258C470.984 89.6889 477.867 87.9043 485.55 87.9043V83.3724C477.132 83.3724 469.459 85.3372 462.584 89.2992L464.846 93.2258ZM485.219 97.2673C478.194 97.2673 472.039 99.4868 466.869 103.936L469.825 107.371C474.138 103.66 479.231 101.799 485.219 101.799V97.2673ZM466.849 103.953C461.808 108.394 458.698 114.106 457.512 120.983L461.978 121.753C462.998 115.838 465.622 111.074 469.845 107.354L466.849 103.953ZM459.745 123.634H510.528V119.102H459.745V123.634ZM512.782 121.143C512.067 113.986 509.109 108.131 503.877 103.751L500.968 107.226C505.219 110.785 507.665 115.517 508.273 121.593L512.782 121.143ZM503.897 103.768C498.804 99.4028 492.527 97.2673 485.219 97.2673V101.799C491.585 101.799 496.777 103.634 500.948 107.209L503.897 103.768ZM562.315 53.3825H564.581V51.1165H562.315V53.3825ZM562.315 170V172.266H564.581V170H562.315ZM546.601 170H544.335V172.266H546.601V170ZM546.601 53.3825V51.1165H544.335V53.3825H546.601ZM560.049 53.3825V170H564.581V53.3825H560.049ZM562.315 167.734H546.601V172.266H562.315V167.734ZM548.867 170V53.3825H544.335V170H548.867ZM546.601 55.6484H562.315V51.1165H546.601V55.6484ZM609.439 102.18V99.9139H607.173V102.18H609.439ZM611.92 153.955L610.221 155.454L610.245 155.481L610.27 155.508L611.92 153.955ZM630.943 155.774H633.209V152.9L630.414 153.571L630.943 155.774ZM630.943 170.165L631.66 172.315L633.209 171.799V170.165H630.943ZM593.725 102.18H595.991V99.9139H593.725V102.18ZM577.183 102.18H574.917V104.446H577.183V102.18ZM577.183 87.2925V85.0266H574.917V87.2925H577.183ZM593.725 87.2925V89.5585H595.991V87.2925H593.725ZM593.725 65.7886V63.5226H591.459V65.7886H593.725ZM609.439 65.7886H611.705V63.5226H609.439V65.7886ZM609.439 87.2925H607.173V89.5585H609.439V87.2925ZM632.597 87.2925H634.863V85.0266H632.597V87.2925ZM632.597 102.18V104.446H634.863V102.18H632.597ZM607.173 102.18V145.849H611.705V102.18H607.173ZM607.173 145.849C607.173 149.705 608.076 153.023 610.221 155.454L613.62 152.456C612.457 151.137 611.705 149.052 611.705 145.849H607.173ZM610.27 155.508C612.667 158.054 616.416 159.033 620.853 159.033V154.501C616.909 154.501 614.703 153.605 613.57 152.402L610.27 155.508ZM620.853 159.033C624.936 159.033 628.488 158.694 631.472 157.978L630.414 153.571C627.884 154.178 624.71 154.501 620.853 154.501V159.033ZM628.677 155.774V170.165H633.209V155.774H628.677ZM630.227 168.016C627.548 168.909 624.167 169.388 620.026 169.388V173.92C624.486 173.92 628.383 173.407 631.66 172.315L630.227 168.016ZM620.026 169.388C611.597 169.388 605.694 167.321 601.887 163.586C598.088 159.858 595.991 154.091 595.991 145.849H591.459C591.459 154.811 593.745 161.946 598.713 166.82C603.673 171.687 610.92 173.92 620.026 173.92V169.388ZM595.991 145.849V102.18H591.459V145.849H595.991ZM593.725 99.9139H577.183V104.446H593.725V99.9139ZM579.449 102.18V87.2925H574.917V102.18H579.449ZM577.183 89.5585H593.725V85.0266H577.183V89.5585ZM595.991 87.2925V65.7886H591.459V87.2925H595.991ZM593.725 68.0545H609.439V63.5226H593.725V68.0545ZM607.173 65.7886V87.2925H611.705V65.7886H607.173ZM609.439 89.5585H632.597V85.0266H609.439V89.5585ZM630.331 87.2925V102.18H634.863V87.2925H630.331ZM632.597 99.9139H609.439V104.446H632.597V99.9139ZM724.441 87.2925H726.707V85.0266H724.441V87.2925ZM724.441 170V172.266H726.707V170H724.441ZM708.727 170H706.461V172.266H708.727V170ZM708.727 157.594H710.993V150.971L706.936 156.206L708.727 157.594ZM696.321 168.015L697.334 170.042L697.352 170.033L697.371 170.023L696.321 168.015ZM660.922 166.195L659.715 168.113L659.727 168.121L659.74 168.129L660.922 166.195ZM646.862 150.812L644.856 151.866L644.856 151.866L646.862 150.812ZM646.862 106.481L648.868 107.535L648.868 107.535L646.862 106.481ZM660.922 91.2625L662.104 93.196L662.117 93.1881L662.129 93.18L660.922 91.2625ZM696.817 89.6083L697.883 87.609L697.883 87.609L696.817 89.6083ZM709.554 100.691L707.736 102.044L711.82 107.532V100.691H709.554ZM709.554 87.2925V85.0266H707.288V87.2925H709.554ZM696.652 153.459L695.47 151.525L695.47 151.525L696.652 153.459ZM705.915 143.368L707.931 144.402L707.936 144.392L707.942 144.382L705.915 143.368ZM705.915 114.09L703.888 115.103L703.893 115.113L703.899 115.124L705.915 114.09ZM696.652 103.834L695.47 105.768L695.47 105.768L696.652 103.834ZM670.351 103.834L671.557 105.752L671.557 105.752L670.351 103.834ZM661.253 114.09L663.269 115.124L663.274 115.113L663.28 115.103L661.253 114.09ZM661.253 143.368L659.226 144.382L659.231 144.392L659.237 144.402L661.253 143.368ZM670.351 153.459L669.145 155.377L669.145 155.377L670.351 153.459ZM722.175 87.2925V170H726.707V87.2925H722.175ZM724.441 167.734H708.727V172.266H724.441V167.734ZM710.993 170V157.594H706.461V170H710.993ZM706.936 156.206C703.713 160.364 699.829 163.624 695.271 166.007L697.371 170.023C702.517 167.333 706.904 163.645 710.518 158.982L706.936 156.206ZM695.307 165.988C690.775 168.254 685.94 169.388 680.772 169.388V173.92C686.631 173.92 692.162 172.628 697.334 170.042L695.307 165.988ZM680.772 169.388C673.892 169.388 667.687 167.674 662.104 164.262L659.74 168.129C666.067 171.995 673.095 173.92 680.772 173.92V169.388ZM662.129 164.278C656.527 160.751 652.109 155.927 648.868 149.758L644.856 151.866C648.451 158.709 653.407 164.141 659.715 168.113L662.129 164.278ZM648.868 149.758C645.64 143.616 644 136.596 644 128.646H639.468C639.468 137.238 641.246 144.996 644.856 151.866L648.868 149.758ZM644 128.646C644 120.696 645.64 113.677 648.868 107.535L644.856 105.427C641.246 112.297 639.468 120.055 639.468 128.646H644ZM648.868 107.535C652.106 101.37 656.517 96.6102 662.104 93.196L659.74 89.329C653.417 93.193 648.454 98.5782 644.856 105.427L648.868 107.535ZM662.129 93.18C667.71 89.6663 673.905 87.9043 680.772 87.9043V83.3724C673.082 83.3724 666.044 85.3598 659.715 89.345L662.129 93.18ZM680.772 87.9043C686.142 87.9043 691.123 89.1396 695.751 91.6077L697.883 87.609C692.586 84.7837 686.871 83.3724 680.772 83.3724V87.9043ZM695.751 91.6077C700.403 94.0889 704.397 97.5564 707.736 102.044L711.372 99.3383C707.654 94.3421 703.156 90.421 697.883 87.609L695.751 91.6077ZM711.82 100.691V87.2925H707.288V100.691H711.82ZM709.554 89.5585H724.441V85.0266H709.554V89.5585ZM683.418 159.364C688.669 159.364 693.492 158.045 697.833 155.392L695.47 151.525C691.872 153.724 687.872 154.832 683.418 154.832V159.364ZM697.833 155.392C702.173 152.74 705.543 149.059 707.931 144.402L703.899 142.334C701.875 146.279 699.07 149.325 695.47 151.525L697.833 155.392ZM707.942 144.382C710.319 139.627 711.489 134.367 711.489 128.646H706.957C706.957 133.732 705.922 138.288 703.888 142.355L707.942 144.382ZM711.489 128.646C711.489 122.926 710.319 117.713 707.931 113.056L703.899 115.124C705.921 119.068 706.957 123.559 706.957 128.646H711.489ZM707.942 113.076C705.558 108.309 702.188 104.562 697.833 101.901L695.47 105.768C699.056 107.959 701.861 111.048 703.888 115.103L707.942 113.076ZM697.833 101.901C693.492 99.2474 688.669 97.9289 683.418 97.9289V102.461C687.872 102.461 691.872 103.568 695.47 105.768L697.833 101.901ZM683.418 97.9289C678.168 97.9289 673.389 99.2476 669.145 101.916L671.557 105.752C675.031 103.568 678.964 102.461 683.418 102.461V97.9289ZM669.145 101.916C664.905 104.581 661.601 108.326 659.226 113.076L663.28 115.103C665.315 111.032 668.077 107.94 671.557 105.752L669.145 101.916ZM659.237 113.056C656.848 117.713 655.679 122.926 655.679 128.646H660.21C660.21 123.559 661.246 119.068 663.269 115.124L659.237 113.056ZM655.679 128.646C655.679 134.367 656.849 139.627 659.226 144.382L663.28 142.355C661.246 138.288 660.21 133.732 660.21 128.646H655.679ZM659.237 144.402C661.616 149.043 664.919 152.721 669.145 155.377L671.557 151.54C668.062 149.344 665.301 146.295 663.269 142.334L659.237 144.402ZM669.145 155.377C673.389 158.045 678.168 159.364 683.418 159.364V154.832C678.964 154.832 675.031 153.724 671.557 151.54L669.145 155.377Z" fill="black"/>
<path d="M875.993 143.534H817.27L802.548 170H784.022L839.105 73.7285L828.684 54.2095H848.368L909.737 170H890.053L875.993 143.534ZM867.887 128.315L847.541 89.6083L825.872 128.315H867.887ZM913.873 128.646C913.873 120.706 915.803 113.483 919.662 106.977C923.522 100.36 928.815 95.1773 935.542 91.4279C942.269 87.5682 949.713 85.6384 957.873 85.6384C967.026 85.6384 975.242 88.3402 982.52 93.7437C989.908 99.037 994.761 105.984 997.076 114.586H979.873C977.999 110.175 974.966 106.701 970.775 104.165C966.695 101.518 962.119 100.195 957.046 100.195C951.863 100.195 947.231 101.463 943.151 103.999C939.071 106.426 935.873 109.844 933.557 114.255C931.241 118.556 930.083 123.353 930.083 128.646C930.083 133.94 931.241 138.792 933.557 143.203C935.873 147.504 939.071 150.922 943.151 153.459C947.231 155.885 951.863 157.098 957.046 157.098C962.119 157.098 966.695 155.829 970.775 153.293C974.966 150.646 977.999 147.118 979.873 142.707H997.076C994.761 151.308 989.908 158.311 982.52 163.714C975.242 169.008 967.026 171.654 957.873 171.654C949.713 171.654 942.269 169.779 935.542 166.03C928.815 162.17 923.522 156.987 919.662 150.481C915.803 143.864 913.873 136.586 913.873 128.646ZM1097.23 155.113V170H1089.29C1084.99 170 1081.63 168.842 1079.2 166.526C1076.89 164.21 1075.62 160.957 1075.4 156.767C1071.87 161.509 1067.62 165.203 1062.66 167.85C1057.7 170.386 1052.35 171.654 1046.61 171.654C1039.23 171.654 1032.5 169.835 1026.43 166.195C1020.48 162.446 1015.74 157.318 1012.21 150.812C1008.79 144.306 1007.08 136.917 1007.08 128.646C1007.08 120.376 1008.84 112.987 1012.37 106.481C1015.9 99.9743 1020.7 94.9016 1026.76 91.2625C1032.83 87.5131 1039.61 85.6384 1047.11 85.6384C1053.4 85.6384 1059.19 87.1823 1064.48 90.27C1069.88 93.3577 1074.35 97.6034 1077.88 103.007L1080.19 87.2925H1095.08L1089.13 128.646V150.646C1089.13 152.08 1089.51 153.183 1090.28 153.955C1091.06 154.727 1092.1 155.113 1093.43 155.113H1097.23ZM1048.76 157.098C1053.62 157.098 1058.03 155.885 1062 153.459C1065.97 151.032 1069.06 147.669 1071.26 143.368C1073.47 138.957 1074.57 134.05 1074.57 128.646C1074.57 123.243 1073.47 118.391 1071.26 114.09C1069.06 109.679 1065.97 106.26 1062 103.834C1058.03 101.408 1053.62 100.195 1048.76 100.195C1043.91 100.195 1039.56 101.408 1035.7 103.834C1031.84 106.26 1028.8 109.679 1026.6 114.09C1024.39 118.391 1023.29 123.243 1023.29 128.646C1023.29 134.05 1024.39 138.957 1026.6 143.368C1028.8 147.669 1031.84 151.032 1035.7 153.459C1039.56 155.885 1043.91 157.098 1048.76 157.098ZM1190.75 53.3825V170H1175.03V157.594C1171.62 162.005 1167.48 165.479 1162.63 168.015C1157.78 170.441 1152.59 171.654 1147.08 171.654C1139.8 171.654 1133.18 169.835 1127.23 166.195C1121.27 162.446 1116.59 157.318 1113.17 150.812C1109.75 144.306 1108.04 136.917 1108.04 128.646C1108.04 120.376 1109.75 112.987 1113.17 106.481C1116.59 99.9743 1121.27 94.9016 1127.23 91.2625C1133.18 87.5131 1139.8 85.6384 1147.08 85.6384C1152.81 85.6384 1158.16 86.9617 1163.12 89.6083C1168.09 92.255 1172.33 95.9492 1175.86 100.691V53.3825H1190.75ZM1149.73 157.098C1154.58 157.098 1158.99 155.885 1162.96 153.459C1166.93 151.032 1170.02 147.669 1172.22 143.368C1174.43 138.957 1175.53 134.05 1175.53 128.646C1175.53 123.243 1174.43 118.391 1172.22 114.09C1170.02 109.679 1166.93 106.26 1162.96 103.834C1158.99 101.408 1154.58 100.195 1149.73 100.195C1144.87 100.195 1140.52 101.408 1136.66 103.834C1132.8 106.26 1129.77 109.679 1127.56 114.09C1125.35 118.391 1124.25 123.243 1124.25 128.646C1124.25 134.05 1125.35 138.957 1127.56 143.368C1129.77 147.669 1132.8 151.032 1136.66 153.459C1140.52 155.885 1144.87 157.098 1149.73 157.098ZM1252.16 85.6384C1260.65 85.6384 1268.04 87.4579 1274.32 91.0971C1280.72 94.7362 1285.63 99.9192 1289.04 106.646C1292.46 113.263 1294.17 121.037 1294.17 129.97C1294.17 132.285 1294.12 133.995 1294.01 135.097H1226.19C1227.29 141.493 1230.27 146.787 1235.12 150.977C1240.08 155.058 1245.82 157.098 1252.32 157.098C1263.02 157.098 1270.63 153.183 1275.15 145.353H1291.36C1288.71 153.073 1283.81 159.413 1276.64 164.376C1269.47 169.228 1261.36 171.654 1252.32 171.654C1244.27 171.654 1236.99 169.835 1230.49 166.195C1223.98 162.446 1218.91 157.318 1215.27 150.812C1211.63 144.195 1209.81 136.807 1209.81 128.646C1209.81 120.486 1211.63 113.152 1215.27 106.646C1218.91 100.029 1223.93 94.9016 1230.32 91.2625C1236.83 87.5131 1244.11 85.6384 1252.16 85.6384ZM1251.83 99.5332C1245.32 99.5332 1239.7 101.573 1234.95 105.654C1230.32 109.734 1227.45 114.972 1226.35 121.368H1277.13C1276.47 114.751 1273.77 109.458 1269.03 105.488C1264.4 101.518 1258.66 99.5332 1251.83 99.5332ZM1414.94 85.6384C1421.55 85.6384 1427.45 87.072 1432.64 89.9392C1437.93 92.8064 1442.07 97.1623 1445.04 103.007C1448.13 108.741 1449.67 115.799 1449.67 124.18V170H1433.96V124.511C1433.96 117.233 1431.87 111.443 1427.67 107.142C1423.59 102.842 1418.41 100.691 1412.13 100.691C1405.29 100.691 1399.77 103.117 1395.58 107.969C1391.39 112.822 1389.3 118.777 1389.3 125.834V170H1373.58V124.511C1373.58 117.233 1371.49 111.443 1367.3 107.142C1363.22 102.842 1358.03 100.691 1351.75 100.691C1344.91 100.691 1339.4 103.117 1335.21 107.969C1331.02 112.822 1328.92 118.777 1328.92 125.834V170H1313.21V87.2925H1328.09V100.36C1331.07 95.839 1334.88 92.255 1339.51 89.6083C1344.25 86.9617 1349.27 85.6384 1354.56 85.6384C1361.07 85.6384 1366.91 87.072 1372.1 89.9392C1377.39 92.6961 1381.47 96.8315 1384.34 102.345C1387.53 97.2726 1391.83 93.2475 1397.24 90.27C1402.75 87.1823 1408.65 85.6384 1414.94 85.6384ZM1549.31 87.2925L1509.11 179.263C1507.02 184.887 1504.1 189.464 1500.35 192.993C1496.6 196.632 1491.08 198.451 1483.81 198.451C1478.62 198.451 1474.6 198.341 1471.73 198.121V183.233C1474.82 183.454 1478.51 183.564 1482.81 183.564C1485.9 183.564 1488.33 182.737 1490.09 181.083C1491.97 179.429 1493.51 177.168 1494.72 174.301L1497.2 168.511L1457.01 87.2925H1475.37L1504.98 150.812L1532.77 87.2925H1549.31Z" fill="black"/>
<g clip-path="url(#clip0_77_91)">
<path d="M47.6499 158.121C51.5785 158.121 55.5116 158.063 59.4402 158.152C60.6629 158.178 61.3162 157.797 61.9298 156.728C72.7534 137.826 83.6255 118.954 94.4799 100.07C98.9294 92.3322 103.339 84.5726 107.842 76.8662C108.521 75.7 108.513 74.76 108.084 73.5495C104.606 63.6659 100.466 54.0041 98.0113 43.7702C96.7444 38.4848 95.7336 33.1994 96.2324 27.6745C96.7621 21.8393 99.49 17.2145 103.608 13.4278C110.093 7.45958 117.646 5.09179 126.227 8.11139C134.87 11.1532 139.955 17.4407 141.645 26.433C142.497 30.969 141.442 35.3322 139.809 39.5578C136.057 49.2507 131.069 58.314 125.746 67.1999C125.114 68.2507 125.141 69.0134 125.737 70.0465C142.431 99.0232 159.103 128.018 175.749 157.025C176.358 158.085 177.003 158.533 178.261 158.515C186.591 158.413 194.929 158.231 203.232 159.194C210.312 160.014 217.269 161.122 223.656 164.701C230.414 168.483 234.242 174.309 235.314 181.728C236.736 191.589 233.765 199.956 225.93 206.558C215.87 215.027 200.583 214.908 190.687 207.654C185.24 203.663 181.113 198.599 177.06 193.363C171.326 185.958 166.122 178.194 161.284 170.181C160.79 169.361 160.247 169.055 159.293 169.055C129.043 169.077 98.7926 169.082 68.5422 169.042C67.3592 169.042 66.8913 169.569 66.3837 170.461C60.5173 180.836 54.4213 191.066 46.9437 200.391C42.7458 205.627 37.7975 209.596 30.982 211.055C16.7242 214.101 2.02059 203.889 0.250502 189.372C-1.12672 178.052 3.12855 169.299 12.6764 163.211C16.3004 160.896 20.5204 160.182 24.6874 159.606C32.3018 158.537 39.9693 158.183 47.6499 158.121Z" fill="#020203"/>
<path d="M73.4731 158.018C86.9849 134.508 100.426 111.123 113.96 87.5825C127.423 111.141 140.767 134.491 154.213 158.018C127.233 158.018 100.483 158.018 73.4731 158.018Z" fill="white"/>
<path d="M55.0928 168.837C49.1116 178.698 43.638 188.489 35.869 196.665C31.8036 200.939 26.714 201.773 21.2669 200.093C15.7934 198.403 12.3812 194.568 10.9996 188.972C9.16769 181.554 13.5157 172.273 23.2975 170.659C33.7326 168.939 44.2339 168.832 55.0928 168.837Z" fill="white"/>
<path d="M182.411 168.819C193.702 168.89 204.618 168.837 215.433 170.965C222.076 172.273 227.078 179.004 226.897 185.81C226.711 192.847 221.772 199.104 215.031 200.469C209.558 201.578 204.808 200.27 200.968 196.057C196.09 190.71 192.166 184.657 188.312 178.565C186.344 175.461 184.499 172.278 182.411 168.819Z" fill="white"/>
<path d="M118.745 58.1043C114.234 50.0343 109.727 42.1416 106.911 33.442C105.291 28.4359 106.69 24.0772 110.544 20.6674C114.455 17.2044 119.046 16.5304 123.804 18.6277C128.514 20.7073 130.977 24.5782 131.255 29.7129C131.379 32.0053 130.417 34.1425 129.613 36.2576C126.735 43.8487 122.829 50.9255 118.745 58.1043Z" fill="white"/>
</g>
<defs>
<clipPath id="clip0_77_91">
<rect width="235.66" height="206.202" fill="white" transform="translate(0 6.79785)"/>
</clipPath>
</defs>
</svg>
