<svg width="474" height="682" viewBox="0 0 474 682" fill="none" xmlns="http://www.w3.org/2000/svg">
<g clip-path="url(#clip0_219_11)">
<path d="M210.8 0.815476C144.667 11.2155 88.5333 57.8821 68 119.615C59.6 144.815 59.0667 150.015 58.4 210.282L57.7333 265.749L48.9333 267.215C29.7333 270.415 13.4667 282.815 4.8 300.815L0 310.815V474.149V637.482L2.93333 644.816C9.06667 659.616 21.8667 672.416 36.6667 678.549L44 681.482H236.667H429.333L436.667 678.549C451.467 672.416 464.267 659.616 470.4 644.816L473.333 637.482V474.149V310.815L468.533 300.682C460 282.815 443.733 270.415 424.4 267.215L415.6 265.749L414.933 210.282C414.4 159.349 414.133 153.749 411.467 141.482C403.333 104.682 386 73.7488 359.333 48.4155C335.467 25.6155 306.533 10.2821 273.2 2.81548C262.267 0.282142 222.267 -0.917858 210.8 0.815476ZM267.867 63.3488C308.267 74.4155 340.8 107.749 351.6 149.215C354.267 159.215 354.533 164.415 354.933 213.082L355.6 266.149H236.667H117.733L118.4 213.082C118.8 164.415 119.067 159.215 121.733 149.215C133.467 104.415 168.533 71.0821 214 61.3488C226.667 58.6821 254.4 59.7488 267.867 63.3488ZM414 474.149V622.149H236.667H59.3333V474.149V326.149H236.667H414V474.149Z" fill="black"/>
<path d="M218.667 388.415C202.4 394.282 190.134 405.349 182.934 420.549C178.934 428.949 178.667 430.282 178.667 444.815C178.667 459.215 178.934 460.682 182.8 468.815C187.467 478.549 195.734 488.549 202.667 492.815L207.334 495.749V517.882C207.334 542.415 208.534 547.082 216.134 554.549C222.4 560.815 227.2 562.682 236.667 562.682C246.134 562.682 250.934 560.815 257.2 554.549C264.8 547.082 266 542.415 266 517.882V495.749L270.667 492.815C277.467 488.682 285.467 478.949 290.4 468.949C294.4 460.682 294.667 459.482 294.667 444.815C294.667 430.282 294.4 428.949 290.4 420.415C284.534 408.015 274.534 397.882 262.267 391.749C252.934 387.215 251.2 386.815 238.8 386.415C228.534 386.149 223.734 386.682 218.667 388.415Z" fill="black"/>
</g>
<defs>
<clipPath id="clip0_219_11">
<rect width="473.33" height="681.48" fill="white"/>
</clipPath>
</defs>
</svg>
