<svg width="474" height="749" viewBox="0 0 474 749" fill="none" xmlns="http://www.w3.org/2000/svg">
<g clip-path="url(#clip0_219_10)">
<path d="M193.333 3.86671C158.933 12.6667 131.467 28.8 107.067 54.5334C83.8667 78.9334 69.7333 106.133 61.7333 141.6C59.0667 153.333 58.8 158.4 58.4 243.467L57.8667 332.933L48.9333 334.4C29.7333 337.6 13.4667 350 4.8 368L0 378V541.333V704.667L2.93333 712C9.06667 726.8 21.8667 739.6 36.6667 745.733L44 748.667H236.667H429.333L436.667 745.733C451.467 739.6 464.267 726.8 470.4 712L473.333 704.667V541.333V378L468.533 367.867C460.267 350.667 444.267 338 426.133 334.667C421.6 333.867 363.6 333.333 268.4 333.333H117.867L118.4 246.267C118.8 162.133 118.933 158.933 121.733 148.4C131.067 112.933 154.667 84.6667 187.6 69.4667C205.2 61.3334 214.4 59.3334 236.667 59.3334C252.667 59.3334 257.867 59.8667 267.067 62.4C308.267 73.6 340.667 106.667 351.6 148.4C354.267 158.4 354.533 163.6 354.933 212.267L355.6 265.333H385.6H415.6L414.933 209.6C414.267 146.8 413.6 140.8 403.2 113.333C384.667 64.1334 343.867 24.6667 294.133 8.00004C273.467 1.06671 265.6 4.23342e-05 235.6 4.23342e-05C209.733 0.133376 207.067 0.400042 193.333 3.86671ZM414 541.333V689.333H236.667H59.3333V541.333V393.333H236.667H414V541.333Z" fill="black"/>
<path d="M218.667 455.6C202.4 461.467 190.133 472.533 182.933 487.733C178.933 496.133 178.667 497.467 178.667 512C178.667 526.4 178.933 527.867 182.8 536C187.467 545.733 195.733 555.733 202.667 560L207.333 562.933V585.067C207.333 609.6 208.533 614.267 216.133 621.733C222.4 628 227.2 629.867 236.667 629.867C246.133 629.867 250.933 628 257.2 621.733C264.8 614.267 266 609.6 266 585.067V562.933L270.667 560C277.467 555.867 285.467 546.133 290.4 536.133C294.4 527.867 294.667 526.667 294.667 512C294.667 497.467 294.4 496.133 290.4 487.6C284.533 475.2 274.533 465.067 262.267 458.933C252.933 454.4 251.2 454 238.8 453.6C228.533 453.333 223.733 453.867 218.667 455.6Z" fill="black"/>
</g>
<defs>
<clipPath id="clip0_219_10">
<rect width="473.33" height="748.67" fill="white"/>
</clipPath>
</defs>
</svg>
