<svg width="1101" height="1101" viewBox="0 0 1101 1101" fill="none" xmlns="http://www.w3.org/2000/svg">
<g clip-path="url(#clip0_242_47)">
<mask id="path-1-outside-1_242_47" maskUnits="userSpaceOnUse" x="55" y="1" width="997" height="1099" fill="black">
<rect fill="white" x="55" y="1" width="997" height="1099"/>
<path d="M92.1992 1063V1016.86H128.088C182.287 1016.86 215.49 1012.46 227.697 1003.67C240.393 994.396 246.74 975.109 246.74 945.812V155.529C246.74 126.721 240.393 107.922 227.697 99.1328C215.002 89.8555 181.799 85.2168 128.088 85.2168H92.1992V38.3418H640.783C735.998 38.3418 815.344 63.9766 878.82 115.246C942.297 166.027 974.035 224.865 974.035 291.76C974.035 346.936 950.598 396.496 903.723 440.441C857.336 484.387 797.766 513.439 725.012 527.6C808.02 536.389 876.867 565.93 931.555 616.223C986.73 666.027 1014.32 723.4 1014.32 788.342C1014.32 861.584 982.824 925.793 919.836 980.969C856.848 1035.66 777.014 1063 680.334 1063H92.1992ZM371.252 956.799C371.252 982.678 374.914 999.279 382.238 1006.6C389.562 1013.44 410.314 1016.86 444.494 1016.86H631.994C703.771 1016.86 760.412 993.42 801.916 946.545C843.42 899.182 864.172 845.959 864.172 786.877C864.172 727.795 845.861 673.107 809.24 622.814C773.107 572.033 721.105 546.643 653.234 546.643H371.252V956.799ZM371.252 513.684H588.781C665.93 513.684 725.012 490.49 766.027 444.104C807.531 397.717 828.283 346.936 828.283 291.76C828.283 242.932 811.682 196.301 778.479 151.867C745.764 107.434 696.447 85.2168 630.529 85.2168H444.494C410.314 85.2168 389.562 88.6348 382.238 95.4707C374.914 102.307 371.252 118.908 371.252 145.275V513.684Z"/>
</mask>
<path d="M92.1992 1063V1016.86H128.088C182.287 1016.86 215.49 1012.46 227.697 1003.67C240.393 994.396 246.74 975.109 246.74 945.812V155.529C246.74 126.721 240.393 107.922 227.697 99.1328C215.002 89.8555 181.799 85.2168 128.088 85.2168H92.1992V38.3418H640.783C735.998 38.3418 815.344 63.9766 878.82 115.246C942.297 166.027 974.035 224.865 974.035 291.76C974.035 346.936 950.598 396.496 903.723 440.441C857.336 484.387 797.766 513.439 725.012 527.6C808.02 536.389 876.867 565.93 931.555 616.223C986.73 666.027 1014.32 723.4 1014.32 788.342C1014.32 861.584 982.824 925.793 919.836 980.969C856.848 1035.66 777.014 1063 680.334 1063H92.1992ZM371.252 956.799C371.252 982.678 374.914 999.279 382.238 1006.6C389.562 1013.44 410.314 1016.86 444.494 1016.86H631.994C703.771 1016.86 760.412 993.42 801.916 946.545C843.42 899.182 864.172 845.959 864.172 786.877C864.172 727.795 845.861 673.107 809.24 622.814C773.107 572.033 721.105 546.643 653.234 546.643H371.252V956.799ZM371.252 513.684H588.781C665.93 513.684 725.012 490.49 766.027 444.104C807.531 397.717 828.283 346.936 828.283 291.76C828.283 242.932 811.682 196.301 778.479 151.867C745.764 107.434 696.447 85.2168 630.529 85.2168H444.494C410.314 85.2168 389.562 88.6348 382.238 95.4707C374.914 102.307 371.252 118.908 371.252 145.275V513.684Z" fill="black"/>
<path d="M92.1992 1063H55.1992V1100H92.1992V1063ZM92.1992 1016.86V979.857H55.1992V1016.86H92.1992ZM227.697 1003.67L249.317 1033.7L249.422 1033.62L249.528 1033.55L227.697 1003.67ZM227.697 99.1328L205.867 129.006L206.248 129.285L206.636 129.554L227.697 99.1328ZM92.1992 85.2168H55.1992V122.217H92.1992V85.2168ZM92.1992 38.3418V1.3418H55.1992V38.3418H92.1992ZM878.82 115.246L855.572 144.03L855.639 144.084L855.707 144.138L878.82 115.246ZM903.723 440.441L878.417 413.449L878.346 413.515L878.276 413.581L903.723 440.441ZM725.012 527.6L717.943 491.281L721.116 564.394L725.012 527.6ZM931.555 616.223L906.509 643.457L906.635 643.573L906.763 643.688L931.555 616.223ZM919.836 980.969L944.093 1008.91L944.155 1008.85L944.216 1008.8L919.836 980.969ZM382.238 1006.6L356.075 1032.77L356.526 1033.22L356.993 1033.65L382.238 1006.6ZM801.916 946.545L829.618 971.073L829.681 971.001L829.744 970.93L801.916 946.545ZM809.24 622.814L779.093 644.265L779.21 644.43L779.33 644.594L809.24 622.814ZM371.252 546.643V509.643H334.252V546.643H371.252ZM371.252 513.684H334.252V550.684H371.252V513.684ZM766.027 444.104L738.453 419.432L738.381 419.513L738.309 419.595L766.027 444.104ZM778.479 151.867L748.683 173.804L748.761 173.91L748.839 174.015L778.479 151.867ZM129.199 1063V1016.86H55.1992V1063H129.199ZM92.1992 1053.86H128.088V979.857H92.1992V1053.86ZM128.088 1053.86C155.951 1053.86 179.611 1052.74 198.494 1050.24C215.442 1048 235.078 1043.95 249.317 1033.7L206.078 973.647C208.11 972.184 205.041 974.73 188.785 976.881C174.465 978.777 154.424 979.857 128.088 979.857V1053.86ZM249.528 1033.55C277.504 1013.1 283.74 977.29 283.74 945.812H209.74C209.74 958.114 208.367 966.027 206.834 970.684C205.374 975.121 204.373 974.892 205.867 973.8L249.528 1033.55ZM283.74 945.812V155.529H209.74V945.812H283.74ZM283.74 155.529C283.74 124.594 277.52 88.624 248.758 68.7117L206.636 129.554C204.789 128.275 205.567 127.641 206.924 131.661C208.371 135.945 209.74 143.498 209.74 155.529H283.74ZM249.528 69.2593C235.209 58.7956 215.66 54.464 198.393 52.0517C179.399 49.3981 155.769 48.2168 128.088 48.2168V122.217C154.118 122.217 173.945 123.355 188.154 125.34C204.09 127.566 207.49 130.193 205.867 129.006L249.528 69.2593ZM128.088 48.2168H92.1992V122.217H128.088V48.2168ZM129.199 85.2168V38.3418H55.1992V85.2168H129.199ZM92.1992 75.3418H640.783V1.3418H92.1992V75.3418ZM640.783 75.3418C729.016 75.3418 799.742 98.9369 855.572 144.03L902.069 86.4623C830.945 29.0162 742.98 1.3418 640.783 1.3418V75.3418ZM855.707 144.138C912.496 189.57 937.035 238.534 937.035 291.76H1011.04C1011.04 211.196 972.097 142.485 901.934 86.3539L855.707 144.138ZM937.035 291.76C937.035 335.006 919.171 375.242 878.417 413.449L929.028 467.434C982.025 417.75 1011.04 358.865 1011.04 291.76H937.035ZM878.276 413.581C837.766 451.959 784.923 478.245 717.943 491.281L732.08 563.918C810.608 548.634 876.906 516.814 929.169 467.302L878.276 413.581ZM721.116 564.394C797.252 572.455 858.377 599.192 906.509 643.457L956.601 588.988C895.358 532.667 818.787 500.322 728.908 490.805L721.116 564.394ZM906.763 643.688C955.407 687.597 977.318 735.433 977.318 788.342H1051.32C1051.32 711.368 1018.05 644.457 956.347 588.757L906.763 643.688ZM977.318 788.342C977.318 849.335 951.7 903.869 895.456 953.137L944.216 1008.8C1013.95 947.717 1051.32 873.833 1051.32 788.342H977.318ZM895.579 953.03C840.374 1000.96 769.602 1026 680.334 1026V1100C784.425 1100 873.321 1070.35 944.093 1008.91L895.579 953.03ZM680.334 1026H92.1992V1100H680.334V1026ZM334.252 956.799C334.252 971.183 335.243 984.731 337.867 996.629C340.34 1007.84 345.165 1021.86 356.075 1032.77L408.401 980.441C411.988 984.027 411.319 986.079 410.13 980.689C409.092 975.986 408.252 968.293 408.252 956.799H334.252ZM356.993 1033.65C369.302 1045.14 386.09 1048.96 397.282 1050.8C410.484 1052.98 426.469 1053.86 444.494 1053.86V979.857C428.34 979.857 416.859 979.029 409.309 977.786C405.556 977.168 403.609 976.578 402.942 976.335C402.011 975.995 404.361 976.64 407.484 979.554L356.993 1033.65ZM444.494 1053.86H631.994V979.857H444.494V1053.86ZM631.994 1053.86C712.647 1053.86 780.028 1027.08 829.618 971.073L774.214 922.017C740.797 959.759 694.896 979.857 631.994 979.857V1053.86ZM829.744 970.93C876.737 917.302 901.172 855.553 901.172 786.877H827.172C827.172 836.365 810.103 881.061 774.088 922.16L829.744 970.93ZM901.172 786.877C901.172 719.538 880.119 657.298 839.151 601.035L779.33 644.594C811.603 688.917 827.172 736.052 827.172 786.877H901.172ZM839.387 601.364C795.621 539.854 731.833 509.643 653.234 509.643V583.643C710.378 583.643 750.593 604.212 779.093 644.265L839.387 601.364ZM653.234 509.643H371.252V583.643H653.234V509.643ZM334.252 546.643V956.799H408.252V546.643H334.252ZM371.252 550.684H588.781V476.684H371.252V550.684ZM588.781 550.684C673.719 550.684 744.037 524.831 793.746 468.612L738.309 419.595C705.986 456.15 658.14 476.684 588.781 476.684V550.684ZM793.601 468.775C840.341 416.536 865.283 357.217 865.283 291.76H791.283C791.283 336.654 774.721 378.897 738.453 419.432L793.601 468.775ZM865.283 291.76C865.283 233.883 845.42 179.639 808.118 129.719L748.839 174.015C777.943 212.963 791.283 251.98 791.283 291.76H865.283ZM808.274 129.93C767.183 74.1197 705.623 48.2168 630.529 48.2168V122.217C687.272 122.217 724.345 140.747 748.683 173.804L808.274 129.93ZM630.529 48.2168H444.494V122.217H630.529V48.2168ZM444.494 48.2168C426.469 48.2168 410.484 49.0978 397.282 51.2722C386.09 53.1157 369.302 56.9329 356.993 68.4217L407.484 122.52C404.361 125.435 402.011 126.08 402.942 125.739C403.609 125.496 405.556 124.906 409.309 124.288C416.859 123.045 428.34 122.217 444.494 122.217V48.2168ZM356.993 68.4217C345.22 79.409 340.306 94.0233 337.867 105.079C335.234 117.014 334.252 130.705 334.252 145.275H408.252C408.252 133.478 409.101 125.685 410.13 121.019C410.629 118.757 411.015 117.959 410.934 118.133C410.861 118.287 409.949 120.219 407.484 122.52L356.993 68.4217ZM334.252 145.275V513.684H408.252V145.275H334.252Z" fill="black" mask="url(#path-1-outside-1_242_47)"/>
</g>
<defs>
<clipPath id="clip0_242_47">
<rect width="1101" height="1101" fill="white"/>
</clipPath>
</defs>
</svg>
