<svg width="1101" height="1101" viewBox="0 0 1101 1101" fill="none" xmlns="http://www.w3.org/2000/svg">
<g clip-path="url(#clip0_244_2)">
<path d="M126.531 1066.97C126.531 1038.32 141.896 1023.48 172.625 1022.44H199.969C259.865 1022.44 299.969 1020.35 320.281 1016.19L552.312 81.0312C509.604 78.9479 477.052 77.9062 454.656 77.9062H424.188C396.583 77.9062 382.781 66.7083 382.781 44.3125C382.781 15.6667 397.625 1.34375 427.312 1.34375C430.438 1.34375 435.125 1.60417 441.375 2.125C448.146 2.64583 453.094 2.90625 456.219 2.90625C567.156 4.98958 636.427 6.03125 664.031 6.03125C710.906 6.03125 754.135 5.77083 793.719 5.25C833.302 4.72917 864.292 3.94792 886.688 2.90625C909.083 1.86458 922.365 1.34375 926.531 1.34375C952.052 1.34375 964.812 12.0208 964.812 33.375C964.812 63.0625 948.146 77.9062 914.812 77.9062H885.125C834.083 77.9062 796.062 80.7708 771.062 86.5L539.031 1019.31C581.74 1021.4 614.292 1022.44 636.688 1022.44H667.156C695.802 1022.44 710.125 1033.11 710.125 1054.47C710.125 1058.64 709.604 1063.32 708.562 1068.53C707.521 1073.74 703.354 1080.25 696.062 1088.06C688.771 1095.35 678.615 1099 665.594 1099C661.427 1099 648.406 1098.48 626.531 1097.44C604.656 1096.4 574.708 1095.61 536.688 1095.09C498.667 1094.57 457.781 1094.31 414.031 1094.31C364.031 1094.31 320.542 1094.57 283.562 1095.09C247.104 1095.61 220.021 1096.4 202.312 1097.44C184.604 1098.48 173.667 1099 169.5 1099C140.854 1099 126.531 1088.32 126.531 1066.97Z" fill="black"/>
</g>
<defs>
<clipPath id="clip0_244_2">
<rect width="1101" height="1101" fill="white"/>
</clipPath>
</defs>
</svg>
