<svg width="1101" height="1101" viewBox="0 0 1101 1101" fill="none" xmlns="http://www.w3.org/2000/svg">
<g clip-path="url(#clip0_244_21)">
<mask id="path-1-outside-1_244_21" maskUnits="userSpaceOnUse" x="156" y="134" width="855" height="870" fill="black">
<rect fill="white" x="156" y="134" width="855" height="870"/>
<path d="M162.357 799.329C162.357 693.638 224.618 612.851 349.14 556.968C423.853 521.13 538.352 498.655 692.637 489.544V421.209C692.637 344.066 672.288 285.146 631.591 244.449C591.501 203.145 545.944 182.492 494.921 182.492C403.808 182.492 336.384 211.041 292.649 268.139C329.702 269.354 354.91 279.376 368.273 298.206C381.637 316.429 388.318 334.955 388.318 353.785C388.318 378.689 380.422 399.342 364.629 415.742C349.443 431.535 328.791 439.432 302.672 439.432C277.768 439.432 257.115 431.839 240.715 416.653C224.314 400.86 216.114 379.297 216.114 351.963C216.114 291.221 243.448 240.805 298.116 200.715C353.392 160.625 420.208 140.58 498.565 140.58C600.612 140.58 685.651 174.899 753.683 243.538C774.942 264.798 790.735 289.095 801.062 316.429C811.995 343.763 818.069 366.541 819.284 384.764C820.499 402.379 821.106 428.802 821.106 464.032V836.686C821.106 843.975 822.321 853.693 824.751 865.842C827.181 877.99 833.862 891.961 844.796 907.754C856.337 922.939 871.522 930.532 890.353 930.532C935.302 930.532 957.473 890.746 956.865 811.174V706.394H1004.24V811.174C1004.24 877.383 986.629 923.547 951.398 949.666C916.775 975.178 883.367 987.934 851.174 987.934C809.869 987.934 776.157 972.748 750.038 942.377C723.919 912.006 709.037 876.168 705.393 834.863C686.562 882.242 655.584 921.421 612.457 952.399C569.938 982.771 519.521 997.956 461.209 997.956C416.26 997.956 372.525 992.186 330.006 980.645C288.094 969.711 249.522 948.755 214.292 917.776C179.669 886.19 162.357 846.708 162.357 799.329ZM306.316 797.507C306.316 843.671 322.717 881.635 355.518 911.398C388.318 941.162 427.801 956.044 473.965 956.044C526.203 956.044 575.708 935.999 622.479 895.909C669.251 855.212 692.637 795.077 692.637 715.505V528.723C554.752 533.582 455.742 563.649 395.607 618.925C336.08 673.593 306.316 733.12 306.316 797.507Z"/>
</mask>
<path d="M162.357 799.329C162.357 693.638 224.618 612.851 349.14 556.968C423.853 521.13 538.352 498.655 692.637 489.544V421.209C692.637 344.066 672.288 285.146 631.591 244.449C591.501 203.145 545.944 182.492 494.921 182.492C403.808 182.492 336.384 211.041 292.649 268.139C329.702 269.354 354.91 279.376 368.273 298.206C381.637 316.429 388.318 334.955 388.318 353.785C388.318 378.689 380.422 399.342 364.629 415.742C349.443 431.535 328.791 439.432 302.672 439.432C277.768 439.432 257.115 431.839 240.715 416.653C224.314 400.86 216.114 379.297 216.114 351.963C216.114 291.221 243.448 240.805 298.116 200.715C353.392 160.625 420.208 140.58 498.565 140.58C600.612 140.58 685.651 174.899 753.683 243.538C774.942 264.798 790.735 289.095 801.062 316.429C811.995 343.763 818.069 366.541 819.284 384.764C820.499 402.379 821.106 428.802 821.106 464.032V836.686C821.106 843.975 822.321 853.693 824.751 865.842C827.181 877.99 833.862 891.961 844.796 907.754C856.337 922.939 871.522 930.532 890.353 930.532C935.302 930.532 957.473 890.746 956.865 811.174V706.394H1004.24V811.174C1004.24 877.383 986.629 923.547 951.398 949.666C916.775 975.178 883.367 987.934 851.174 987.934C809.869 987.934 776.157 972.748 750.038 942.377C723.919 912.006 709.037 876.168 705.393 834.863C686.562 882.242 655.584 921.421 612.457 952.399C569.938 982.771 519.521 997.956 461.209 997.956C416.26 997.956 372.525 992.186 330.006 980.645C288.094 969.711 249.522 948.755 214.292 917.776C179.669 886.19 162.357 846.708 162.357 799.329ZM306.316 797.507C306.316 843.671 322.717 881.635 355.518 911.398C388.318 941.162 427.801 956.044 473.965 956.044C526.203 956.044 575.708 935.999 622.479 895.909C669.251 855.212 692.637 795.077 692.637 715.505V528.723C554.752 533.582 455.742 563.649 395.607 618.925C336.08 673.593 306.316 733.12 306.316 797.507Z" fill="black"/>
<path d="M349.14 556.968L351.596 562.442L351.666 562.411L351.735 562.378L349.14 556.968ZM692.637 489.544L692.99 495.534L698.637 495.2V489.544H692.637ZM631.591 244.449L627.285 248.628L627.317 248.66L627.348 248.692L631.591 244.449ZM292.649 268.139L287.886 264.49L280.791 273.753L292.453 274.135L292.649 268.139ZM368.273 298.206L363.38 301.679L363.407 301.717L363.435 301.754L368.273 298.206ZM364.629 415.742L360.307 411.58L360.304 411.584L364.629 415.742ZM240.715 416.653L236.553 420.975L236.595 421.016L236.638 421.056L240.715 416.653ZM298.116 200.715L294.594 195.858L294.581 195.867L294.568 195.876L298.116 200.715ZM753.683 243.538L749.421 247.762L749.431 247.771L749.44 247.781L753.683 243.538ZM801.062 316.429L795.449 318.549L795.469 318.603L795.491 318.657L801.062 316.429ZM819.284 384.764L813.297 385.163L813.298 385.176L819.284 384.764ZM824.751 865.842L818.867 867.018L824.751 865.842ZM844.796 907.754L839.863 911.169L839.938 911.279L840.019 911.384L844.796 907.754ZM956.865 811.174H950.865V811.197L950.865 811.22L956.865 811.174ZM956.865 706.394V700.394H950.865V706.394H956.865ZM1004.24 706.394H1010.24V700.394H1004.24V706.394ZM951.398 949.666L954.958 954.496L954.965 954.491L954.972 954.486L951.398 949.666ZM750.038 942.377L745.489 946.289L750.038 942.377ZM705.393 834.863L711.369 834.336L699.817 832.647L705.393 834.863ZM612.457 952.399L615.944 957.282L615.951 957.277L615.957 957.273L612.457 952.399ZM330.006 980.645L331.578 974.854L331.549 974.846L331.52 974.839L330.006 980.645ZM214.292 917.776L210.248 922.209L210.289 922.246L210.33 922.282L214.292 917.776ZM622.479 895.909L626.384 900.465L626.401 900.45L626.418 900.436L622.479 895.909ZM692.637 528.723H698.637V522.507L692.425 522.726L692.637 528.723ZM395.607 618.925L399.666 623.344L399.668 623.342L395.607 618.925ZM168.357 799.329C168.357 747.757 183.515 702.437 213.805 663.133C244.162 623.743 289.945 590.11 351.596 562.442L346.683 551.494C283.812 579.709 236.205 614.41 204.301 655.808C172.33 697.291 156.357 745.21 156.357 799.329H168.357ZM351.735 562.378C425.375 527.054 538.928 504.632 692.99 495.534L692.283 483.554C537.775 492.679 422.33 515.206 346.545 551.558L351.735 562.378ZM698.637 489.544V421.209H686.637V489.544H698.637ZM698.637 421.209C698.637 343.034 677.997 282.37 635.833 240.207L627.348 248.692C666.579 287.922 686.637 345.099 686.637 421.209H698.637ZM635.896 240.27C594.835 197.965 547.781 176.492 494.921 176.492V188.492C544.108 188.492 588.167 208.324 627.285 248.628L635.896 240.27ZM494.921 176.492C402.488 176.492 333.052 205.524 287.886 264.49L297.413 271.787C339.715 216.559 405.127 188.492 494.921 188.492V176.492ZM292.453 274.135C328.772 275.326 351.625 285.115 363.38 301.679L373.166 294.734C358.195 273.637 330.632 263.381 292.846 262.142L292.453 274.135ZM363.435 301.754C376.198 319.159 382.318 336.47 382.318 353.785H394.318C394.318 333.44 387.075 313.698 373.112 294.658L363.435 301.754ZM382.318 353.785C382.318 377.297 374.918 396.408 360.307 411.58L368.951 419.904C385.926 402.276 394.318 380.082 394.318 353.785H382.318ZM360.304 411.584C346.464 425.977 327.497 433.432 302.672 433.432V445.432C330.085 445.432 352.422 437.094 368.954 419.901L360.304 411.584ZM302.672 433.432C279.092 433.432 259.953 426.289 244.791 412.251L236.638 421.056C254.278 437.389 276.443 445.432 302.672 445.432V433.432ZM244.877 412.331C229.882 397.892 222.114 378.018 222.114 351.963H210.114C210.114 380.575 218.747 403.828 236.553 420.975L244.877 412.331ZM222.114 351.963C222.114 293.374 248.331 244.664 301.664 205.553L294.568 195.876C238.565 236.945 210.114 289.067 210.114 351.963H222.114ZM301.639 205.572C355.743 166.331 421.28 146.58 498.565 146.58V134.58C419.137 134.58 351.04 154.919 294.594 195.858L301.639 205.572ZM498.565 146.58C599.111 146.58 682.585 180.329 749.421 247.762L757.944 239.314C688.718 169.47 602.113 134.58 498.565 134.58V146.58ZM749.44 247.781C770.115 268.456 785.432 292.035 795.449 318.549L806.674 314.308C796.038 286.154 779.769 261.139 757.925 239.295L749.44 247.781ZM795.491 318.657C806.315 345.718 812.142 367.832 813.297 385.163L825.271 384.365C823.997 365.25 817.675 341.807 806.632 314.2L795.491 318.657ZM813.298 385.176C814.499 402.578 815.106 428.833 815.106 464.032H827.106C827.106 428.771 826.5 402.18 825.27 384.351L813.298 385.176ZM815.106 464.032V836.686H827.106V464.032H815.106ZM815.106 836.686C815.106 844.549 816.406 854.711 818.867 867.018L830.634 864.665C828.237 852.676 827.106 843.4 827.106 836.686H815.106ZM818.867 867.018C821.522 880.289 828.693 895.035 839.863 911.169L849.729 904.339C839.032 888.887 832.84 875.691 830.634 864.665L818.867 867.018ZM840.019 911.384C852.677 928.04 869.619 936.532 890.353 936.532V924.532C873.426 924.532 859.997 917.839 849.573 904.123L840.019 911.384ZM890.353 936.532C902.5 936.532 913.403 933.835 922.853 928.234C932.298 922.635 939.962 914.33 945.934 903.613C957.774 882.367 963.172 851.279 962.865 811.128L950.865 811.22C951.166 850.641 945.783 879.233 935.451 897.772C930.338 906.949 924.069 913.563 916.734 917.911C909.404 922.256 900.68 924.532 890.353 924.532V936.532ZM962.865 811.174V706.394H950.865V811.174H962.865ZM956.865 712.394H1004.24V700.394H956.865V712.394ZM998.244 706.394V811.174H1010.24V706.394H998.244ZM998.244 811.174C998.244 876.486 980.871 920.346 947.825 944.846L954.972 954.486C992.386 926.747 1010.24 878.28 1010.24 811.174H998.244ZM947.839 944.836C913.904 969.84 881.717 981.934 851.174 981.934V993.934C885.017 993.934 919.646 980.515 954.958 954.496L947.839 944.836ZM851.174 981.934C811.555 981.934 779.526 967.464 754.587 938.465L745.489 946.289C772.788 978.032 808.183 993.934 851.174 993.934V981.934ZM754.587 938.465C729.316 909.08 714.908 874.438 711.369 834.336L699.416 835.391C703.166 877.898 718.522 914.932 745.489 946.289L754.587 938.465ZM699.817 832.647C681.428 878.915 651.193 917.188 608.957 947.526L615.957 957.273C659.975 925.654 691.697 885.57 710.968 837.079L699.817 832.647ZM608.97 947.517C567.584 977.078 518.423 991.956 461.209 991.956V1003.96C520.62 1003.96 572.291 988.463 615.944 957.282L608.97 947.517ZM461.209 991.956C416.78 991.956 373.574 986.253 331.578 974.854L328.434 986.435C371.476 998.118 415.74 1003.96 461.209 1003.96V991.956ZM331.52 974.839C290.588 964.161 252.841 943.683 218.254 913.271L210.33 922.282C246.204 953.827 285.599 975.261 328.491 986.45L331.52 974.839ZM218.336 913.344C184.974 882.909 168.357 845.042 168.357 799.329H156.357C156.357 848.374 174.364 889.472 210.248 922.209L218.336 913.344ZM300.316 797.507C300.316 845.282 317.373 884.888 351.486 915.842L359.55 906.955C328.061 878.382 312.316 842.06 312.316 797.507H300.316ZM351.486 915.842C385.441 946.653 426.379 962.044 473.965 962.044V950.044C429.222 950.044 391.196 935.671 359.55 906.955L351.486 915.842ZM473.965 962.044C527.884 962.044 578.73 941.311 626.384 900.465L618.575 891.354C572.686 930.687 524.522 950.044 473.965 950.044V962.044ZM626.418 900.436C674.85 858.293 698.637 796.286 698.637 715.505H686.637C686.637 793.868 663.652 852.131 618.541 891.383L626.418 900.436ZM698.637 715.505V528.723H686.637V715.505H698.637ZM692.425 522.726C554.017 527.604 453.252 557.789 391.547 614.507L399.668 623.342C458.232 569.51 555.487 539.56 692.848 534.719L692.425 522.726ZM391.549 614.506C331.122 670 300.316 731.031 300.316 797.507H312.316C312.316 735.209 341.038 677.186 399.666 623.344L391.549 614.506Z" fill="black" mask="url(#path-1-outside-1_244_21)"/>
<line x1="62" y1="599" x2="1017" y2="599" stroke="black" stroke-width="60"/>
</g>
<defs>
<clipPath id="clip0_244_21">
<rect width="1101" height="1101" fill="white"/>
</clipPath>
</defs>
</svg>
