<svg width="1101" height="1101" viewBox="0 0 1101 1101" fill="none" xmlns="http://www.w3.org/2000/svg">
<g clip-path="url(#clip0_244_4)">
<mask id="path-1-outside-1_244_4" maskUnits="userSpaceOnUse" x="66" y="5" width="967" height="999" fill="black">
<rect fill="white" x="66" y="5" width="967" height="999"/>
<path d="M72.418 55.7061V12.0186C105.184 14.749 174.128 16.1143 279.251 16.1143C383.464 16.1143 451.953 14.749 484.719 12.0186V55.7061H451.271C400.757 55.7061 369.584 60.0293 357.752 68.6758C346.375 76.8672 340.687 94.3877 340.687 121.237V653.679C340.687 716.024 349.333 768.813 366.626 812.046C383.919 854.823 405.99 885.769 432.84 904.882C459.689 923.995 484.036 937.192 505.88 944.474C528.179 951.3 550.022 954.713 571.411 954.713C642.403 954.713 704.749 926.498 758.448 870.068C812.603 813.639 839.68 738.323 839.68 644.122V158.781C839.68 144.674 838.77 133.524 836.949 125.333C835.129 117.142 830.123 106.675 821.932 93.9326C814.195 81.1904 799.633 71.6338 778.244 65.2627C756.855 58.8916 729.323 55.7061 695.647 55.7061V12.0186C796.22 14.749 851.739 16.1143 862.206 16.1143C871.308 16.1143 926.145 14.749 1026.72 12.0186V55.7061C993.041 55.7061 965.509 58.6641 944.12 64.5801C922.731 70.4961 908.169 80.0527 900.433 93.25C892.696 106.447 887.69 117.824 885.415 127.381C883.595 136.482 882.685 148.77 882.685 164.242V612.039C882.685 657.547 881.319 689.63 878.589 708.288C866.302 789.292 831.261 857.781 773.466 913.756C716.126 969.73 647.864 997.718 568.681 997.718C472.659 997.718 389.835 964.042 320.208 896.69C251.036 828.884 216.45 746.06 216.45 648.218V121.237C216.45 94.3877 210.534 76.8672 198.702 68.6758C186.87 60.0293 155.925 55.7061 105.866 55.7061H72.418Z"/>
</mask>
<path d="M72.418 55.7061V12.0186C105.184 14.749 174.128 16.1143 279.251 16.1143C383.464 16.1143 451.953 14.749 484.719 12.0186V55.7061H451.271C400.757 55.7061 369.584 60.0293 357.752 68.6758C346.375 76.8672 340.687 94.3877 340.687 121.237V653.679C340.687 716.024 349.333 768.813 366.626 812.046C383.919 854.823 405.99 885.769 432.84 904.882C459.689 923.995 484.036 937.192 505.88 944.474C528.179 951.3 550.022 954.713 571.411 954.713C642.403 954.713 704.749 926.498 758.448 870.068C812.603 813.639 839.68 738.323 839.68 644.122V158.781C839.68 144.674 838.77 133.524 836.949 125.333C835.129 117.142 830.123 106.675 821.932 93.9326C814.195 81.1904 799.633 71.6338 778.244 65.2627C756.855 58.8916 729.323 55.7061 695.647 55.7061V12.0186C796.22 14.749 851.739 16.1143 862.206 16.1143C871.308 16.1143 926.145 14.749 1026.72 12.0186V55.7061C993.041 55.7061 965.509 58.6641 944.12 64.5801C922.731 70.4961 908.169 80.0527 900.433 93.25C892.696 106.447 887.69 117.824 885.415 127.381C883.595 136.482 882.685 148.77 882.685 164.242V612.039C882.685 657.547 881.319 689.63 878.589 708.288C866.302 789.292 831.261 857.781 773.466 913.756C716.126 969.73 647.864 997.718 568.681 997.718C472.659 997.718 389.835 964.042 320.208 896.69C251.036 828.884 216.45 746.06 216.45 648.218V121.237C216.45 94.3877 210.534 76.8672 198.702 68.6758C186.87 60.0293 155.925 55.7061 105.866 55.7061H72.418Z" fill="black"/>
<path d="M72.418 55.7061H66.418V61.7061H72.418V55.7061ZM72.418 12.0186L72.9162 6.03928L66.418 5.49776V12.0186H72.418ZM484.719 12.0186H490.719V5.49776L484.22 6.03928L484.719 12.0186ZM484.719 55.7061V61.7061H490.719V55.7061H484.719ZM357.752 68.6758L361.258 73.545L361.275 73.5326L361.292 73.5201L357.752 68.6758ZM366.626 812.046L361.055 814.274L361.059 814.284L361.063 814.295L366.626 812.046ZM505.88 944.474L503.983 950.166L504.053 950.189L504.124 950.211L505.88 944.474ZM758.448 870.068L754.119 865.914L754.11 865.923L754.102 865.932L758.448 870.068ZM821.932 93.9326L816.803 97.0465L816.843 97.1123L816.885 97.1772L821.932 93.9326ZM695.647 55.7061H689.647V61.7061H695.647V55.7061ZM695.647 12.0186L695.81 6.02076L689.647 5.85345V12.0186H695.647ZM1026.72 12.0186H1032.72V5.85345L1026.55 6.02076L1026.72 12.0186ZM1026.72 55.7061V61.7061H1032.72V55.7061H1026.72ZM885.415 127.381L879.578 125.991L879.553 126.097L879.532 126.204L885.415 127.381ZM878.589 708.288L884.521 709.188L884.523 709.172L884.526 709.157L878.589 708.288ZM773.466 913.756L769.292 909.446L769.283 909.454L769.275 909.462L773.466 913.756ZM320.208 896.69L316.008 900.975L316.022 900.989L316.036 901.003L320.208 896.69ZM198.702 68.6758L195.162 73.5201L195.224 73.5653L195.287 73.6089L198.702 68.6758ZM78.418 55.7061V12.0186H66.418V55.7061H78.418ZM71.9197 17.9978C104.979 20.7528 174.182 22.1143 279.251 22.1143V10.1143C174.074 10.1143 105.388 8.74525 72.9162 6.03928L71.9197 17.9978ZM279.251 22.1143C383.412 22.1143 452.158 20.7528 485.217 17.9978L484.22 6.03928C451.748 8.74529 383.516 10.1143 279.251 10.1143V22.1143ZM478.719 12.0186V55.7061H490.719V12.0186H478.719ZM484.719 49.7061H451.271V61.7061H484.719V49.7061ZM451.271 49.7061C425.881 49.7061 405.153 50.7903 389.181 53.0054C373.496 55.1808 361.427 58.5592 354.212 63.8314L361.292 73.5201C365.909 70.1459 375.343 67.0394 390.83 64.8916C406.031 62.7835 426.146 61.7061 451.271 61.7061V49.7061ZM354.246 63.8066C340.326 73.8293 334.687 94.1077 334.687 121.237H346.687C346.687 94.6677 352.424 79.905 361.258 73.545L354.246 63.8066ZM334.687 121.237V653.679H346.687V121.237H334.687ZM334.687 653.679C334.687 716.544 343.4 770.137 361.055 814.274L372.197 809.818C355.266 767.49 346.687 715.505 346.687 653.679H334.687ZM361.063 814.295C378.621 857.726 401.277 889.778 429.36 909.77L436.319 899.994C410.704 881.759 389.217 851.921 372.189 809.797L361.063 814.295ZM429.36 909.77C456.504 929.093 481.389 942.635 503.983 950.166L507.777 938.782C486.683 931.75 462.875 918.898 436.319 899.994L429.36 909.77ZM504.124 950.211C526.94 957.196 549.376 960.713 571.411 960.713V948.713C550.669 948.713 529.417 945.404 507.636 938.736L504.124 950.211ZM571.411 960.713C644.215 960.713 708.085 931.696 762.795 874.205L754.102 865.932C701.413 921.3 640.591 948.713 571.411 948.713V960.713ZM762.777 874.223C818.216 816.455 845.68 739.535 845.68 644.122H833.68C833.68 737.111 806.989 810.823 754.119 865.914L762.777 874.223ZM845.68 644.122V158.781H833.68V644.122H845.68ZM845.68 158.781C845.68 144.489 844.764 132.841 842.806 124.031L831.092 126.635C832.775 134.207 833.68 144.859 833.68 158.781H845.68ZM842.806 124.031C840.755 114.803 835.296 103.626 826.979 90.6881L816.885 97.1772C824.95 109.724 829.502 119.481 831.092 126.635L842.806 124.031ZM827.06 90.8187C818.245 76.2997 802.081 66.1025 779.957 59.5124L776.531 71.013C797.185 77.1651 810.145 86.0811 816.803 97.0465L827.06 90.8187ZM779.957 59.5124C757.807 52.9144 729.64 49.7061 695.647 49.7061V61.7061C729.006 61.7061 755.904 64.8688 776.531 71.013L779.957 59.5124ZM701.647 55.7061V12.0186H689.647V55.7061H701.647ZM695.485 18.0163C795.987 20.7449 851.633 22.1143 862.206 22.1143V10.1143C851.846 10.1143 796.452 8.75312 695.81 6.02076L695.485 18.0163ZM862.206 22.1143C871.415 22.1143 926.381 20.7448 1026.88 18.0163L1026.55 6.02076C925.908 8.75324 871.201 10.1143 862.206 10.1143V22.1143ZM1020.72 12.0186V55.7061H1032.72V12.0186H1020.72ZM1026.72 49.7061C992.749 49.7061 964.625 52.6832 942.521 58.7972L945.72 70.3629C966.393 64.6449 993.333 61.7061 1026.72 61.7061V49.7061ZM942.521 58.7972C920.303 64.9424 904.077 75.1687 895.256 90.2157L905.609 96.2843C912.261 84.9367 925.159 76.0498 945.72 70.3629L942.521 58.7972ZM895.256 90.2157C887.367 103.674 882.045 115.629 879.578 125.991L891.252 128.771C893.335 120.02 898.025 109.221 905.609 96.2843L895.256 90.2157ZM879.532 126.204C877.6 135.864 876.685 148.598 876.685 164.242H888.685C888.685 148.941 889.59 137.101 891.299 128.558L879.532 126.204ZM876.685 164.242V612.039H888.685V164.242H876.685ZM876.685 612.039C876.685 657.548 875.313 689.238 872.652 707.419L884.526 709.157C887.326 690.021 888.685 657.546 888.685 612.039H876.685ZM872.657 707.388C860.563 787.119 826.125 854.403 769.292 909.446L777.64 918.066C836.397 861.16 872.041 791.465 884.521 709.188L872.657 707.388ZM769.275 909.462C713.041 964.358 646.277 991.718 568.681 991.718V1003.72C649.451 1003.72 719.211 975.103 777.657 918.049L769.275 909.462ZM568.681 991.718C474.231 991.718 392.899 958.658 324.38 892.378L316.036 901.003C386.771 969.426 471.087 1003.72 568.681 1003.72V991.718ZM324.408 892.406C256.401 825.74 222.45 744.466 222.45 648.218H210.45C210.45 747.653 245.672 832.027 316.008 900.975L324.408 892.406ZM222.45 648.218V121.237H210.45V648.218H222.45ZM222.45 121.237C222.45 94.0428 216.555 73.7378 202.117 63.7426L195.287 73.6089C204.513 79.9966 210.45 94.7326 210.45 121.237H222.45ZM202.242 63.8314C195.034 58.5636 183.03 55.1829 167.449 53.0062C151.589 50.7904 131.029 49.7061 105.866 49.7061V61.7061C130.762 61.7061 150.704 62.7834 165.789 64.8908C181.154 67.0373 190.539 70.1415 195.162 73.5201L202.242 63.8314ZM105.866 49.7061H72.418V61.7061H105.866V49.7061Z" fill="black" mask="url(#path-1-outside-1_244_4)"/>
<line x1="73" y1="1062" x2="1028" y2="1062" stroke="black" stroke-width="60"/>
</g>
<defs>
<clipPath id="clip0_244_4">
<rect width="1101" height="1101" fill="white"/>
</clipPath>
</defs>
</svg>
